# xmcd CD database file
#
# Track frame offsets:
#	150
#	11342
#	28325
#	40012
#	52890
#	70730
#	82310
#	94750
#	107805
#	119100
#	138110
#	147482
#	159095
#	175720
#	185387
#	204372
#	216482
#	229490
#
# Disc length: 3222 seconds
#
# Revision: 0
# Processed by: cddbd v1.5.1PL0 Copyright (c) Steve Scherf et al.
# Submitted via: CDex 1.51
#
DISCID=fe0c9412
DTITLE=Various Artist - The Voices - cd 1
DYEAR=2005
DGENRE=Jazz
TTITLE0=Frank Sinatra - My blue heaven
TTITLE1=Peter Cincotti - I love Paris
TTITLE2=Bing Crosby - Nive Work if you can get it
TTITLE3=Fred Astaire - Puttin' on the ritz
TTITLE4=Louise Armstrong - Makin' whoopee
TTITLE5=Billy Eckstine - On green dolphine street
TTITLE6=Johnny Hartman - The very thought of you
TTITLE7=Mel Torme' - A stranger in town
TTITLE8=Bobby Darin - Sunday in New York
TTITLE9=Mark Murphy - Exactly like you
TTITLE10=Oscar Brown Jr. - Mr. Kicks
TTITLE11=Tony Bennett - The best of jet to come
TTITLE12=Aaron Neville - Summertime
TTITLE13=Perry Como - Caterina
TTITLE14=Jamie Cullum - Old devil moon
TTITLE15=Chet Baker - The touch of your lips
TTITLE16=Nat "King" Cole - Sweet lorraine
TTITLE17=Dean Martin - Sway
EXTD=YEAR: 2005
EXTT0=
EXTT1=
EXTT2=
EXTT3=
EXTT4=
EXTT5=
EXTT6=
EXTT7=
EXTT8=
EXTT9=
EXTT10=
EXTT11=
EXTT12=
EXTT13=
EXTT14=
EXTT15=
EXTT16=
EXTT17=
PLAYORDER=
